Coordinates
version=1
nRows=19
nColumns=24
inDegrees=yes

Units are S.I. units (second, meters, Newtons, ...)
Angles are in degrees.

endheader
time	pelvis_tilt	pelvis_list	pelvis_rotation	pelvis_tx	pelvis_ty	pelvis_tz	hip_flexion_r	hip_adduction_r	hip_rotation_r	knee_angle_r	ankle_angle_r	subtalar_angle_r	mtp_angle_r	hip_flexion_l	hip_adduction_l	hip_rotation_l	knee_angle_l	ankle_angle_l	subtalar_angle_l	mtp_angle_l	lumbar_extension	lumbar_bending	lumbar_rotation
      0.58300000	     -2.41894209	      2.50856981	      6.52730888	     -0.91875302	      1.00520645	      0.31130888	     25.92754607	     -2.96013094	     -9.36797179	      2.81154367	      3.08779537	      0.00317389	      5.03886504	    -12.11286002	      6.55716263	     11.01563518	     -7.90996822	     15.57582013	     -4.19021531	     -2.95465497	     -2.72778593	     -5.84686691	     -5.10205171
      0.58716667	     -2.37114904	      2.37889985	      6.54864918	     -0.91316924	      1.00454415	      0.31144461	     26.00968077	     -2.75783506	     -9.19524911	      2.10255576	      3.11952893	     -0.28388342	      5.06194199	    -12.28599951	      6.40155449	     11.03275300	     -8.33510112	     15.75493878	     -4.16988118	     -2.96274048	     -2.73209176	     -5.67814666	     -5.08480420
      0.59133333	     -2.30443433	      2.24171810	      6.57007391	     -0.90754894	      1.00394480	      0.31158258	     26.07786176	     -2.54907671	     -9.07338976	      1.34471628	      3.10474125	     -0.52901037	      5.07384705	    -12.46455228	      6.23900579	     11.03286550	     -8.79130325	     15.85233654	     -4.22605268	     -2.96386542	     -2.77825776	     -5.50783981	     -5.08036694
      0.59550000	     -2.25370776	      2.11655051	      6.57003871	     -0.90189450	      1.00332752	      0.31177532	     26.12373489	     -2.33135592	     -8.68543121	      0.64680243	      2.89835295	     -1.21966325	      5.14901626	    -12.59156089	      6.08963357	     10.87981141	     -9.32323484	     16.07169645	     -3.97646060	     -2.97014909	     -2.75985305	     -5.33600889	     -5.04739606
      0.59966667	     -2.16409644	      1.97169927	      6.56364488	     -0.89617713	      1.00280286	      0.31196837	     26.14088345	     -2.09217075	     -8.39718938	     -0.10388930	      2.72090798	     -1.73363486	      5.24092094	    -12.77607315	      5.92049793	     10.79903450	     -9.82060941	     16.19548571	     -3.90218305	     -2.96936244	     -2.79979917	     -5.13753004	     -5.02216511
      0.60383333	     -2.10538759	      1.82505283	      6.55416610	     -0.89039547	      1.00226639	      0.31218073	     26.18240904	     -1.84865532	     -8.07349592	     -0.85346868	      2.46857425	     -2.32446939	      5.34099667	    -12.91952982	      5.75531582	     10.71648612	    -10.33768623	     16.28942045	     -3.83877072	     -2.95739855	     -2.78936956	     -4.94530258	     -4.99935834
      0.60800000	     -2.03425169	      1.66983233	      6.53481232	     -0.88457495	      1.00177517	      0.31241978	     26.20122147	     -1.58691867	     -7.71605409	     -1.59018082	      2.14594590	     -2.97319142	      5.45343519	    -13.06965013	      5.58176962	     10.62096610	    -10.87459221	     16.35759449	     -3.78144667	     -2.93313651	     -2.79534104	     -4.74387134	     -4.97032835
      0.61216667	     -1.96875110	      1.51867278	      6.51200398	     -0.87871220	      1.00131610	      0.31268517	     26.21650926	     -1.32316210	     -7.32929360	     -2.31279755	      1.74701274	     -3.68730016	      5.58050087	    -13.19864308	      5.41463703	     10.51240027	    -11.44069307	     16.39896345	     -3.71832703	     -2.89364614	     -2.78099417	     -4.54692456	     -4.93695469
      0.61633333	     -1.89806620	      1.34376345	      6.47031149	     -0.87276504	      1.00088936	      0.31297975	     26.21458614	     -1.02405056	     -6.91987128	     -3.01269164	      1.30314909	     -4.39673724	      5.69269577	    -13.34309276	      5.22425832	     10.38761346	    -11.98612584	     16.40761833	     -3.67044850	     -2.84774184	     -2.75588355	     -4.29760522	     -4.90800172
      0.62050000	     -1.84130230	      1.18613336	      6.43835671	     -0.86681116	      1.00049273	      0.31329898	     26.21853766	     -0.74181803	     -6.50044964	     -3.69076880	      0.75154870	     -5.20271785	      5.82003520	    -13.44127362	      5.05162992	     10.24992243	    -12.59744623	     16.38117086	     -3.60241882	     -2.78171794	     -2.72920274	     -4.10853346	     -4.86399181
      0.62466667	     -1.78188246	      1.01724850	      6.40415725	     -0.86080869	      1.00014282	      0.31363692	     26.21009152	     -0.44515577	     -6.08734526	     -4.34863068	      0.15969925	     -5.98944403	      5.95361351	    -13.53964452	      4.86461645	     10.09950495	    -13.20767810	     16.32174702	     -3.51801789	     -2.69832814	     -2.69012119	     -3.88900723	     -4.82707071
      0.62883333	     -1.71513768	      0.85858832	      6.37695353	     -0.85479409	      0.99983462	      0.31400327	     26.18504865	     -0.15575793	     -5.66537594	     -4.98598560	     -0.48183846	     -6.85590441	      6.13665605	    -13.62449554	      4.68283451	      9.92595106	    -13.86962625	     16.26702368	     -3.39651480	     -2.56663190	     -2.66647665	     -3.71580698	     -4.77489328
      0.63300000	     -1.65527465	      0.68270968	      6.33698294	     -0.84870574	      0.99956278	      0.31439261	     26.15903593	      0.15507843	     -5.25908754	     -5.60476427	     -1.15838562	     -7.65486839	      6.32470187	    -13.69965564	      4.48658868	      9.75188644	    -14.52798991	     16.14289097	     -3.30942067	     -2.41063337	     -2.61564926	     -3.49926204	     -4.72911923
      0.63716667	     -1.59364098	      0.50203867	      6.29544088	     -0.84259055	      0.99933859	      0.31480232	     26.12574168	      0.47146518	     -4.86742531	     -6.21151315	     -1.85289551	     -8.43528399	      6.52654396	    -13.76108848	      4.28165411	      9.54097616	    -15.20936270	     15.98247464	     -3.19707237	     -2.21667069	     -2.57075647	     -3.27783319	     -4.67995608
      0.64133333	     -1.55755288	      0.31491557	      6.26385932	     -0.83643377	      0.99912179	      0.31521695	     26.11438854	      0.78605930	     -4.50949929	     -6.81058340	     -2.54908512	     -9.17269759	      6.72501401	    -13.78274792	      4.06807895	      9.33459719	    -15.92112600	     15.79064765	     -3.07668343	     -1.99594878	     -2.47806683	     -3.05994753	     -4.64279705
      0.64550000	     -1.51720415	      0.12216213	      6.23091844	     -0.83023797	      0.99896115	      0.31564681	     26.09172629	      1.10528500	     -4.17738774	     -7.39986513	     -3.23914718	     -9.87354324	      6.92144345	    -13.78799957	      3.84563804	      9.09916720	    -16.66351441	     15.55615370	     -2.94009460	     -1.74109570	     -2.38912173	     -2.83022591	     -4.60245856
      0.64966667	     -1.46461949	     -0.07554691	      6.19437945	     -0.82402444	      0.99885640	      0.31609529	     26.05407863	      1.42980759	     -3.86551561	     -7.98832924	     -3.90470373	    -10.53127208	      7.12568511	    -13.79738300	      3.61248196	      8.84154837	    -17.41551392	     15.28076490	     -2.78861299	     -1.43376867	     -2.31678772	     -2.59490455	     -4.55459432
      0.65383333	     -1.41747422	     -0.27734288	      6.16785853	     -0.81778311	      0.99879878	      0.31654093	     26.01851783	      1.74920614	     -3.59944805	     -8.57861922	     -4.52737324	    -11.12950091	      7.33598151	    -13.77376122	      3.36981132	      8.56236105	    -18.21032310	     14.95777448	     -2.62094819	     -1.05977838	     -2.22922203	     -2.36087177	     -4.52012945
      0.65800000	     -1.38296362	     -0.48494422	      6.14528395	     -0.81151098	      0.99877054	      0.31699555	     25.99494037	      2.06708247	     -3.36942637	     -9.17617778	     -5.09718401	    -11.66823442	      7.54601781	    -13.72615693	      3.11585467	      8.27210489	    -19.01854012	     14.58875726	     -2.44815580	     -0.61614773	     -2.12111079	     -2.12199580	     -4.48573658
